<svg width="78" height="78" viewBox="0 0 78 78" fill="none" xmlns="http://www.w3.org/2000/svg">
<path d="M76.9448 39C77.5276 39 78.0015 38.5273 77.9857 37.9448C77.7518 29.2972 74.648 20.9612 69.1474 14.2587C63.4234 7.2839 55.458 2.50965 46.6085 0.749375C37.7591 -1.0109 28.573 0.351726 20.6155 4.60507C12.6581 8.85841 6.42161 15.7393 2.96871 24.0753C-0.484189 32.4114 -0.93986 41.6868 1.67934 50.3211C4.29853 58.9554 9.83054 66.4145 17.3328 71.4273C24.835 76.4401 33.8433 78.6966 42.8227 77.8122C51.4516 76.9623 59.5408 73.2626 65.8209 67.3132C66.244 66.9124 66.2431 66.2431 65.831 65.831C65.419 65.419 64.7518 65.4203 64.3281 65.8204C58.3937 71.4248 50.7588 74.91 42.6158 75.712C34.1223 76.5485 25.6015 74.4142 18.5052 69.6726C11.409 64.931 6.17631 57.8756 3.69884 49.7085C1.22138 41.5414 1.65239 32.7679 4.91844 24.8829C8.1845 16.998 14.0835 10.4894 21.6104 6.46626C29.1372 2.44307 37.8262 1.15418 46.1968 2.8192C54.5674 4.48422 62.1018 9.00013 67.5161 15.5975C72.7069 21.9225 75.6412 29.7856 75.8745 37.9448C75.8912 38.5273 76.3621 39 76.9448 39Z" fill="#DA3A30" fill-opacity="0.7"/>
<path d="M13.6498 33.6471C13.2529 33.5649 12.8635 33.8199 12.7921 34.2188C11.7314 40.1407 12.6691 46.2554 15.4694 51.5957C18.3835 57.1529 23.1343 61.5278 28.9124 63.9749C34.6905 66.4221 41.1383 66.79 47.1573 65.0161C53.1762 63.2422 58.3939 59.4362 61.9213 54.2465C65.4486 49.0569 67.0674 42.8047 66.5018 36.5553C65.9362 30.306 63.2212 24.446 58.8195 19.974C54.4177 15.502 48.6015 12.6945 42.3619 12.0301C36.3658 11.3915 30.3352 12.7699 25.2192 15.9354C24.8745 16.1486 24.7807 16.6045 25.0032 16.9433C25.2257 17.282 25.6802 17.3753 26.0252 17.1626C30.8571 14.1832 36.548 12.8869 42.2064 13.4895C48.1084 14.118 53.6099 16.7735 57.7735 21.0035C61.9371 25.2336 64.5051 30.7764 65.0401 36.6876C65.5751 42.5988 64.0439 48.5127 60.7074 53.4215C57.3709 58.3303 52.4356 61.9304 46.7424 63.6083C41.0491 65.2862 34.9502 64.9382 29.4848 62.6235C24.0193 60.3088 19.5256 56.1706 16.7692 50.9141C14.1266 45.8745 13.2376 40.1059 14.2298 34.5167C14.3006 34.1176 14.0466 33.7293 13.6498 33.6471Z" fill="#DA3A30" fill-opacity="0.7"/>
<path d="M55.9581 40.1132C56.2101 40.1293 56.4281 39.9381 56.4375 39.6858C56.5761 35.9402 55.4651 32.2496 53.2725 29.199C50.9908 26.0245 47.679 23.7393 43.9014 22.7329C40.1237 21.7264 36.1139 22.0609 32.5553 23.6794C28.9966 25.2979 26.1092 28.1003 24.3851 31.609C22.661 35.1177 22.2068 39.1157 23.1 42.9217C23.9931 46.7278 26.1783 50.1064 29.2833 52.4819C32.3882 54.8574 36.2208 56.0828 40.1279 55.9493C43.8826 55.8211 47.4829 54.4456 50.3633 52.0472C50.5573 51.8857 50.5755 51.5962 50.4088 51.4066C50.242 51.217 49.9535 51.1991 49.7592 51.3604C47.0378 53.6191 43.6399 54.9144 40.0967 55.0355C36.401 55.1617 32.7758 54.0026 29.8389 51.7557C26.902 49.5087 24.835 46.3129 23.9902 42.7128C23.1454 39.1128 23.575 35.3311 25.2058 32.0123C26.8366 28.6934 29.5677 26.0427 32.9338 24.5118C36.2999 22.9808 40.0927 22.6644 43.666 23.6164C47.2392 24.5684 50.3718 26.73 52.53 29.7327C54.5991 32.6115 55.6499 36.0928 55.5246 39.6272C55.5157 39.8796 55.7061 40.097 55.9581 40.1132Z" fill="#DA3A30" fill-opacity="0.7"/>
</svg>
