<svg width="25" height="24" viewBox="0 0 25 24" fill="none" xmlns="http://www.w3.org/2000/svg">
<path d="M2.0752 3H8.30161C9.40251 3 10.4583 3.42143 11.2368 4.17157C12.0152 4.92172 12.4526 5.93913 12.4526 7V21C12.4526 20.2044 12.1246 19.4413 11.5407 18.8787C10.9569 18.3161 10.165 18 9.33935 18H2.0752V3Z" stroke="white" stroke-linecap="round" stroke-linejoin="round"/>
<path d="M22.8305 3H16.6041C15.5032 3 14.4474 3.42143 13.6689 4.17157C12.8905 4.92172 12.4531 5.93913 12.4531 7V21C12.4531 20.2044 12.7811 19.4413 13.365 18.8787C13.9488 18.3161 14.7407 18 15.5663 18H22.8305V3Z" stroke="white" stroke-linecap="round" stroke-linejoin="round"/>
</svg>
