<svg width="23" height="23" viewBox="0 0 23 23" fill="none" xmlns="http://www.w3.org/2000/svg">
<mask id="path-1-outside-1_346_308" maskUnits="userSpaceOnUse" x="0" y="0" width="23" height="23" fill="black">
<rect fill="white" width="23" height="23"/>
<path d="M22 11.5C22 17.299 17.299 22 11.5 22C5.70101 22 1 17.299 1 11.5C1 5.70101 5.70101 1 11.5 1C17.299 1 22 5.70101 22 11.5Z"/>
<path d="M9.4 10.7542C9.08776 10.7542 8.80606 10.6863 8.55491 10.5505C8.30376 10.408 8.10012 10.2213 7.944 9.99055C7.79467 9.75297 7.72 9.49164 7.72 9.20654C7.72 8.92145 7.79467 8.66352 7.944 8.43273C8.10012 8.19515 8.30376 8.00848 8.55491 7.87273C8.80606 7.73697 9.08776 7.66909 9.4 7.66909C9.71224 7.66909 9.99394 7.73697 10.2451 7.87273C10.503 8.00848 10.7067 8.19515 10.856 8.43273C11.0053 8.66352 11.08 8.92145 11.08 9.20654C11.08 9.49164 11.0053 9.75297 10.856 9.99055C10.7067 10.2213 10.503 10.408 10.2451 10.5505C9.99394 10.6863 9.71224 10.7542 9.4 10.7542ZM9.4 10.072C9.53576 10.072 9.65794 10.0313 9.76655 9.94982C9.87515 9.86836 9.96 9.76315 10.0211 9.63418C10.089 9.50521 10.1229 9.36606 10.1229 9.21673C10.1229 9.05382 10.089 8.90788 10.0211 8.77891C9.95321 8.64994 9.86497 8.54812 9.75636 8.47345C9.64776 8.392 9.52897 8.35127 9.4 8.35127C9.26424 8.35127 9.14206 8.392 9.03345 8.47345C8.92485 8.54812 8.83661 8.64994 8.76873 8.77891C8.70764 8.90788 8.67709 9.05042 8.67709 9.20654C8.67709 9.36267 8.71103 9.50861 8.77891 9.64436C8.84679 9.77333 8.93503 9.87855 9.04364 9.96C9.15224 10.0347 9.27103 10.072 9.4 10.072ZM13.3302 15.1018C13.0179 15.1018 12.7362 15.0339 12.4851 14.8982C12.2339 14.7624 12.0303 14.5792 11.8742 14.3484C11.7248 14.1108 11.6502 13.8495 11.6502 13.5644C11.6502 13.2725 11.7248 13.0112 11.8742 12.7804C12.0303 12.5496 12.2339 12.3663 12.4851 12.2305C12.7362 12.088 13.0179 12.0167 13.3302 12.0167C13.6424 12.0167 13.9241 12.088 14.1753 12.2305C14.4332 12.3663 14.6368 12.5496 14.7862 12.7804C14.9355 13.0112 15.0102 13.2691 15.0102 13.5542C15.0102 13.8393 14.9355 14.1006 14.7862 14.3382C14.6368 14.569 14.4332 14.7556 14.1753 14.8982C13.9241 15.0339 13.6424 15.1018 13.3302 15.1018ZM13.3302 14.4196C13.4659 14.4196 13.5881 14.3789 13.6967 14.2975C13.8053 14.216 13.8902 14.1108 13.9513 13.9818C14.0192 13.8528 14.0531 13.7137 14.0531 13.5644C14.0531 13.4015 14.0192 13.2555 13.9513 13.1265C13.8902 12.9976 13.8019 12.8958 13.6865 12.8211C13.5779 12.7396 13.4592 12.6989 13.3302 12.6989C13.2012 12.6989 13.079 12.7396 12.9636 12.8211C12.855 12.8958 12.7668 13.001 12.6989 13.1367C12.6378 13.2657 12.6073 13.4048 12.6073 13.5542C12.6073 13.7171 12.6412 13.863 12.7091 13.992C12.777 14.121 12.8652 14.2262 12.9738 14.3076C13.0824 14.3823 13.2012 14.4196 13.3302 14.4196ZM8.30036 14.5215L11.1615 11.1716L13.8087 7.68945L14.4298 8.23927L11.64 11.5382L8.91127 15.0713L8.30036 14.5215Z"/>
</mask>
<path d="M9.4 10.7542C9.08776 10.7542 8.80606 10.6863 8.55491 10.5505C8.30376 10.408 8.10012 10.2213 7.944 9.99055C7.79467 9.75297 7.72 9.49164 7.72 9.20654C7.72 8.92145 7.79467 8.66352 7.944 8.43273C8.10012 8.19515 8.30376 8.00848 8.55491 7.87273C8.80606 7.73697 9.08776 7.66909 9.4 7.66909C9.71224 7.66909 9.99394 7.73697 10.2451 7.87273C10.503 8.00848 10.7067 8.19515 10.856 8.43273C11.0053 8.66352 11.08 8.92145 11.08 9.20654C11.08 9.49164 11.0053 9.75297 10.856 9.99055C10.7067 10.2213 10.503 10.408 10.2451 10.5505C9.99394 10.6863 9.71224 10.7542 9.4 10.7542ZM9.4 10.072C9.53576 10.072 9.65794 10.0313 9.76655 9.94982C9.87515 9.86836 9.96 9.76315 10.0211 9.63418C10.089 9.50521 10.1229 9.36606 10.1229 9.21673C10.1229 9.05382 10.089 8.90788 10.0211 8.77891C9.95321 8.64994 9.86497 8.54812 9.75636 8.47345C9.64776 8.392 9.52897 8.35127 9.4 8.35127C9.26424 8.35127 9.14206 8.392 9.03345 8.47345C8.92485 8.54812 8.83661 8.64994 8.76873 8.77891C8.70764 8.90788 8.67709 9.05042 8.67709 9.20654C8.67709 9.36267 8.71103 9.50861 8.77891 9.64436C8.84679 9.77333 8.93503 9.87855 9.04364 9.96C9.15224 10.0347 9.27103 10.072 9.4 10.072ZM13.3302 15.1018C13.0179 15.1018 12.7362 15.0339 12.4851 14.8982C12.2339 14.7624 12.0303 14.5792 11.8742 14.3484C11.7248 14.1108 11.6502 13.8495 11.6502 13.5644C11.6502 13.2725 11.7248 13.0112 11.8742 12.7804C12.0303 12.5496 12.2339 12.3663 12.4851 12.2305C12.7362 12.088 13.0179 12.0167 13.3302 12.0167C13.6424 12.0167 13.9241 12.088 14.1753 12.2305C14.4332 12.3663 14.6368 12.5496 14.7862 12.7804C14.9355 13.0112 15.0102 13.2691 15.0102 13.5542C15.0102 13.8393 14.9355 14.1006 14.7862 14.3382C14.6368 14.569 14.4332 14.7556 14.1753 14.8982C13.9241 15.0339 13.6424 15.1018 13.3302 15.1018ZM13.3302 14.4196C13.4659 14.4196 13.5881 14.3789 13.6967 14.2975C13.8053 14.216 13.8902 14.1108 13.9513 13.9818C14.0192 13.8528 14.0531 13.7137 14.0531 13.5644C14.0531 13.4015 14.0192 13.2555 13.9513 13.1265C13.8902 12.9976 13.8019 12.8958 13.6865 12.8211C13.5779 12.7396 13.4592 12.6989 13.3302 12.6989C13.2012 12.6989 13.079 12.7396 12.9636 12.8211C12.855 12.8958 12.7668 13.001 12.6989 13.1367C12.6378 13.2657 12.6073 13.4048 12.6073 13.5542C12.6073 13.7171 12.6412 13.863 12.7091 13.992C12.777 14.121 12.8652 14.2262 12.9738 14.3076C13.0824 14.3823 13.2012 14.4196 13.3302 14.4196ZM8.30036 14.5215L11.1615 11.1716L13.8087 7.68945L14.4298 8.23927L11.64 11.5382L8.91127 15.0713L8.30036 14.5215Z" fill="white"/>
<path d="M8.55491 10.5505L8.0613 11.4202L8.0703 11.4253L8.07939 11.4303L8.55491 10.5505ZM7.944 9.99055L7.09736 10.5227L7.1063 10.5369L7.11572 10.5509L7.944 9.99055ZM7.944 8.43273L7.10827 7.88353L7.10443 7.88948L7.944 8.43273ZM8.55491 7.87273L8.07939 6.99302L8.07939 6.99302L8.55491 7.87273ZM10.2451 7.87273L9.76954 8.75249L9.77934 8.75764L10.2451 7.87273ZM10.856 8.43273L10.0093 8.96494L10.0164 8.97598L10.856 8.43273ZM10.856 9.99055L11.6956 10.5338L11.7026 10.5227L10.856 9.99055ZM10.2451 10.5505L10.7206 11.4303L10.7288 11.4258L10.2451 10.5505ZM9.76655 9.94982L10.3665 10.7498H10.3665L9.76655 9.94982ZM10.0211 9.63418L9.13617 9.16843L9.12637 9.18707L9.11735 9.20609L10.0211 9.63418ZM10.0211 8.77891L9.13617 9.24465L9.13617 9.24466L10.0211 8.77891ZM9.75636 8.47345L9.15636 9.27345L9.17285 9.28582L9.18984 9.2975L9.75636 8.47345ZM9.03345 8.47345L9.59998 9.2975L9.61697 9.28582L9.63346 9.27345L9.03345 8.47345ZM8.76873 8.77891L7.88381 8.31316L7.874 8.3318L7.86499 8.35082L8.76873 8.77891ZM8.77891 9.64436L7.88448 10.0916L7.88914 10.1009L7.89399 10.1101L8.77891 9.64436ZM9.04364 9.96L8.44364 10.76L8.46012 10.7724L8.47711 10.784L9.04364 9.96ZM12.4851 14.8982L12.9606 14.0185L12.4851 14.8982ZM11.8742 14.3484L11.0275 14.8805L11.0365 14.8948L11.0459 14.9087L11.8742 14.3484ZM11.8742 12.7804L11.0459 12.2201L11.0402 12.2285L11.0346 12.2371L11.8742 12.7804ZM12.4851 12.2305L12.9606 13.1103L12.9697 13.1053L12.9787 13.1002L12.4851 12.2305ZM14.1753 12.2305L13.6817 13.1002L13.6955 13.1081L13.7095 13.1155L14.1753 12.2305ZM14.7862 14.3382L15.6258 14.8815L15.6328 14.8704L14.7862 14.3382ZM14.1753 14.8982L14.6508 15.7779L14.659 15.7734L14.1753 14.8982ZM13.6967 14.2975L14.2967 15.0975L14.2967 15.0975L13.6967 14.2975ZM13.9513 13.9818L13.0664 13.5161L13.0565 13.5347L13.0475 13.5537L13.9513 13.9818ZM13.9513 13.1265L13.0475 13.5546L13.0565 13.5737L13.0664 13.5923L13.9513 13.1265ZM13.6865 12.8211L13.0865 13.6211L13.1142 13.6419L13.1433 13.6607L13.6865 12.8211ZM12.9636 12.8211L13.5302 13.6452L13.5403 13.6381L12.9636 12.8211ZM12.6989 13.1367L11.8045 12.6895L11.7997 12.699L11.7952 12.7086L12.6989 13.1367ZM12.9738 14.3076L12.3738 15.1076L12.3903 15.12L12.4073 15.1317L12.9738 14.3076ZM8.30036 14.5215L7.53997 13.872L6.90714 14.6129L7.6314 15.2647L8.30036 14.5215ZM11.1615 11.1716L11.9219 11.8211L11.9403 11.7995L11.9575 11.7768L11.1615 11.1716ZM13.8087 7.68945L14.4716 6.94069L13.6648 6.22648L13.0127 7.08425L13.8087 7.68945ZM14.4298 8.23927L15.1934 8.885L15.8247 8.13852L15.0927 7.49051L14.4298 8.23927ZM11.64 11.5382L10.8764 10.8925L10.8621 10.9094L10.8486 10.9269L11.64 11.5382ZM8.91127 15.0713L8.24231 15.8146L9.04369 16.5358L9.70271 15.6825L8.91127 15.0713ZM21 11.5C21 16.7467 16.7467 21 11.5 21V23C17.8513 23 23 17.8513 23 11.5H21ZM11.5 21C6.25329 21 2 16.7467 2 11.5H0C0 17.8513 5.14873 23 11.5 23V21ZM2 11.5C2 6.25329 6.25329 2 11.5 2V0C5.14873 0 0 5.14873 0 11.5H2ZM11.5 2C16.7467 2 21 6.25329 21 11.5H23C23 5.14873 17.8513 0 11.5 0V2ZM9.4 9.75418C9.23787 9.75418 9.12213 9.72041 9.03043 9.67084L8.07939 11.4303C8.48999 11.6522 8.93764 11.7542 9.4 11.7542V9.75418ZM9.04851 9.68086C8.92622 9.61145 8.83896 9.5288 8.77228 9.43024L7.11572 10.5509C7.36128 10.9139 7.6813 11.2046 8.0613 11.4202L9.04851 9.68086ZM8.79064 9.45837C8.74319 9.38288 8.72 9.30653 8.72 9.20654H6.72C6.72 9.67675 6.84615 10.1231 7.09736 10.5227L8.79064 9.45837ZM8.72 9.20654C8.72 9.10667 8.74298 9.0387 8.78357 8.97598L7.10443 7.88948C6.84635 8.28832 6.72 8.73624 6.72 9.20654H8.72ZM8.77971 8.9819C8.84455 8.88322 8.92418 8.80986 9.03043 8.75243L8.07939 6.99302C7.68333 7.20711 7.35569 7.50708 7.10829 7.88355L8.77971 8.9819ZM9.03043 8.75243C9.12213 8.70287 9.23787 8.66909 9.4 8.66909V6.66909C8.93764 6.66909 8.48999 6.77107 8.07939 6.99302L9.03043 8.75243ZM9.4 8.66909C9.56212 8.66909 9.67787 8.70287 9.76957 8.75243L10.7206 6.99302C10.31 6.77107 9.86236 6.66909 9.4 6.66909V8.66909ZM9.77934 8.75764C9.88778 8.81472 9.95745 8.8823 10.0094 8.9649L11.7026 7.90055C11.4559 7.508 11.1183 7.20225 10.7108 6.98781L9.77934 8.75764ZM10.0164 8.97598C10.057 9.03871 10.08 9.10667 10.08 9.20654H12.08C12.08 8.73624 11.9536 8.28832 11.6956 7.88948L10.0164 8.97598ZM10.08 9.20654C10.08 9.30653 10.0568 9.38288 10.0094 9.45837L11.7026 10.5227C11.9539 10.1231 12.08 9.67675 12.08 9.20654H10.08ZM10.0164 9.44729C9.96298 9.5299 9.88587 9.60652 9.7614 9.6753L10.7288 11.4258C11.1202 11.2095 11.4504 10.9128 11.6956 10.5338L10.0164 9.44729ZM9.76957 9.67084C9.67787 9.72041 9.56212 9.75418 9.4 9.75418V11.7542C9.86236 11.7542 10.31 11.6522 10.7206 11.4303L9.76957 9.67084ZM9.4 11.072C9.75213 11.072 10.0848 10.9611 10.3665 10.7498L9.16655 9.14982C9.19355 9.12957 9.23095 9.1082 9.27723 9.09277C9.32351 9.07734 9.36624 9.072 9.4 9.072V11.072ZM10.3665 10.7498C10.6118 10.5659 10.7979 10.3303 10.9248 10.0623L9.11735 9.20609C9.11869 9.20328 9.12347 9.19416 9.13322 9.18206C9.14313 9.16979 9.15476 9.15866 9.16654 9.14982L10.3665 10.7498ZM10.906 10.0999C11.0514 9.82371 11.1229 9.52419 11.1229 9.21673H9.12291C9.12291 9.21496 9.1232 9.20736 9.12593 9.19614C9.1287 9.1848 9.13266 9.1751 9.13617 9.16843L10.906 10.0999ZM11.1229 9.21673C11.1229 8.91093 11.058 8.60198 10.906 8.31316L9.13617 9.24466C9.12921 9.23143 9.12529 9.21951 9.12345 9.2116C9.12172 9.20417 9.12291 9.20495 9.12291 9.21673H11.1229ZM10.906 8.31316C10.7707 8.05617 10.5788 7.82534 10.3229 7.64941L9.18984 9.2975C9.17261 9.28565 9.15856 9.27257 9.14831 9.26075C9.13835 9.24926 9.13504 9.24249 9.13617 9.24465L10.906 8.31316ZM10.3564 7.67345C10.0844 7.46948 9.7572 7.35127 9.4 7.35127V9.35127C9.35716 9.35127 9.30931 9.34416 9.26149 9.32776C9.21422 9.31156 9.17898 9.29042 9.15636 9.27345L10.3564 7.67345ZM9.4 7.35127C9.04787 7.35127 8.71516 7.46218 8.43345 7.67345L9.63346 9.27345C9.60645 9.29371 9.56905 9.31507 9.52277 9.3305C9.47649 9.34593 9.43375 9.35127 9.4 9.35127V7.35127ZM8.46693 7.64941C8.21103 7.82534 8.01907 8.05617 7.88381 8.31316L9.65365 9.24465C9.65478 9.24249 9.65147 9.24926 9.64151 9.26075C9.63126 9.27257 9.61721 9.28565 9.59998 9.2975L8.46693 7.64941ZM7.86499 8.35082C7.73474 8.62579 7.67709 8.91647 7.67709 9.20654H9.67709C9.67709 9.19397 9.67829 9.18981 9.6778 9.19207C9.67725 9.19463 9.67567 9.20024 9.67247 9.207L7.86499 8.35082ZM7.67709 9.20654C7.67709 9.51332 7.74515 9.81292 7.88448 10.0916L9.67334 9.19715C9.67355 9.19758 9.67413 9.19881 9.67482 9.20071C9.67551 9.20263 9.6761 9.20465 9.67655 9.20658C9.67756 9.21093 9.67709 9.21155 9.67709 9.20654H7.67709ZM7.89399 10.1101C8.02573 10.3604 8.20789 10.5832 8.44364 10.76L9.64364 9.16C9.65128 9.16573 9.65769 9.17202 9.66219 9.17739C9.66654 9.18257 9.66662 9.18393 9.66383 9.17862L7.89399 10.1101ZM8.47711 10.784C8.74852 10.9706 9.06406 11.072 9.4 11.072V9.072C9.43355 9.072 9.47294 9.0771 9.51401 9.09001C9.55488 9.10285 9.58732 9.12025 9.61017 9.13596L8.47711 10.784ZM13.3302 14.1018C13.1681 14.1018 13.0523 14.068 12.9606 14.0185L12.0096 15.7779C12.4202 15.9998 12.8678 16.1018 13.3302 16.1018V14.1018ZM12.9606 14.0185C12.8474 13.9573 12.7661 13.8822 12.7025 13.7881L11.0459 14.9087C11.2945 15.2761 11.6205 15.5676 12.0096 15.7779L12.9606 14.0185ZM12.7208 13.8162C12.6734 13.7407 12.6502 13.6643 12.6502 13.5644H10.6502C10.6502 14.0346 10.7763 14.4809 11.0275 14.8805L12.7208 13.8162ZM12.6502 13.5644C12.6502 13.4528 12.6757 13.3824 12.7138 13.3236L11.0346 12.2371C10.774 12.6399 10.6502 13.0922 10.6502 13.5644H12.6502ZM12.7025 13.3407C12.7661 13.2466 12.8474 13.1714 12.9606 13.1103L12.0096 11.3508C11.6205 11.5612 11.2945 11.8526 11.0459 12.2201L12.7025 13.3407ZM12.9787 13.1002C13.0672 13.05 13.1765 13.0167 13.3302 13.0167V11.0167C12.8594 11.0167 12.4052 11.126 11.9915 11.3609L12.9787 13.1002ZM13.3302 13.0167C13.4839 13.0167 13.5931 13.05 13.6817 13.1002L14.6689 11.3609C14.2551 11.126 13.801 11.0167 13.3302 11.0167V13.0167ZM13.7095 13.1155C13.8251 13.1763 13.8962 13.2457 13.9466 13.3236L15.6258 12.2371C15.3775 11.8535 15.0413 11.5563 14.641 11.3456L13.7095 13.1155ZM13.9466 13.3236C13.9872 13.3863 14.0102 13.4543 14.0102 13.5542H16.0102C16.0102 13.0839 15.8838 12.636 15.6258 12.2371L13.9466 13.3236ZM14.0102 13.5542C14.0102 13.6542 13.987 13.7305 13.9395 13.806L15.6328 14.8704C15.884 14.4707 16.0102 14.0244 16.0102 13.5542H14.0102ZM13.9466 13.7949C13.8932 13.8775 13.8161 13.9542 13.6916 14.0229L14.659 15.7734C15.0504 15.5571 15.3805 15.2604 15.6258 14.8814L13.9466 13.7949ZM13.6998 14.0185C13.6081 14.068 13.4923 14.1018 13.3302 14.1018V16.1018C13.7925 16.1018 14.2402 15.9998 14.6508 15.7779L13.6998 14.0185ZM13.3302 15.4196C13.6823 15.4196 14.015 15.3087 14.2967 15.0975L13.0967 13.4975C13.1237 13.4772 13.1611 13.4558 13.2074 13.4404C13.2537 13.425 13.2964 13.4196 13.3302 13.4196V15.4196ZM14.2967 15.0975C14.542 14.9135 14.7281 14.6779 14.855 14.4099L13.0475 13.5537C13.0489 13.5509 13.0537 13.5418 13.0634 13.5297C13.0733 13.5174 13.0849 13.5063 13.0967 13.4975L14.2967 15.0975ZM14.8362 14.4476C14.9816 14.1714 15.0531 13.8718 15.0531 13.5644H13.0531C13.0531 13.5626 13.0534 13.555 13.0561 13.5438C13.0589 13.5324 13.0628 13.5227 13.0664 13.5161L14.8362 14.4476ZM15.0531 13.5644C15.0531 13.2586 14.9882 12.9496 14.8362 12.6608L13.0664 13.5923C13.0594 13.5791 13.0555 13.5671 13.0536 13.5592C13.0519 13.5518 13.0531 13.5526 13.0531 13.5644H15.0531ZM14.855 12.6985C14.7175 12.4082 14.5074 12.1612 14.2298 11.9815L13.1433 13.6607C13.1234 13.6478 13.1025 13.6302 13.0836 13.6084C13.0649 13.5868 13.0535 13.5673 13.0475 13.5546L14.855 12.6985ZM14.2865 12.0211C14.0146 11.8171 13.6874 11.6989 13.3302 11.6989V13.6989C13.2873 13.6989 13.2395 13.6918 13.1917 13.6754C13.1444 13.6592 13.1092 13.6381 13.0865 13.6211L14.2865 12.0211ZM13.3302 11.6989C12.975 11.6989 12.6542 11.8155 12.387 12.0041L13.5403 13.6381C13.5258 13.6483 13.4982 13.6647 13.458 13.6781C13.417 13.6918 13.373 13.6989 13.3302 13.6989V11.6989ZM12.3971 11.997C12.1292 12.1812 11.9364 12.4256 11.8045 12.6895L13.5933 13.5839C13.5959 13.5787 13.5933 13.5854 13.5822 13.5986C13.5707 13.6123 13.5534 13.6292 13.5302 13.6451L12.3971 11.997ZM11.7952 12.7086C11.6677 12.9777 11.6073 13.2638 11.6073 13.5542H13.6073C13.6073 13.5481 13.6078 13.5481 13.6069 13.5522C13.606 13.5565 13.6044 13.5612 13.6026 13.5648L11.7952 12.7086ZM11.6073 13.5542C11.6073 13.86 11.6722 14.1689 11.8242 14.4577L13.594 13.5263C13.601 13.5395 13.6049 13.5514 13.6067 13.5593C13.6085 13.5667 13.6073 13.566 13.6073 13.5542H11.6073ZM11.8242 14.4577C11.9559 14.708 12.1381 14.9308 12.3738 15.1076L13.5738 13.5076C13.5815 13.5134 13.5879 13.5197 13.5924 13.525C13.5967 13.5302 13.5968 13.5316 13.594 13.5263L11.8242 14.4577ZM12.4073 15.1317C12.6787 15.3183 12.9942 15.4196 13.3302 15.4196V13.4196C13.3637 13.4196 13.4031 13.4247 13.4442 13.4376C13.4851 13.4505 13.5175 13.4679 13.5403 13.4836L12.4073 15.1317ZM9.06076 15.1709L11.9219 11.8211L10.4011 10.5222L7.53997 13.872L9.06076 15.1709ZM11.9575 11.7768L14.6048 8.29466L13.0127 7.08425L10.3654 10.5664L11.9575 11.7768ZM13.1459 8.43822L13.767 8.98803L15.0927 7.49051L14.4716 6.94069L13.1459 8.43822ZM13.6663 7.59354L10.8764 10.8925L12.4036 12.1839L15.1934 8.885L13.6663 7.59354ZM10.8486 10.9269L8.11984 14.46L9.70271 15.6825L12.4314 12.1494L10.8486 10.9269ZM9.58024 14.328L8.96933 13.7782L7.6314 15.2647L8.24231 15.8146L9.58024 14.328Z" fill="white" mask="url(#path-1-outside-1_346_308)"/>
</svg>
