<svg width="24" height="22" viewBox="0 0 24 22" fill="none" xmlns="http://www.w3.org/2000/svg">
<path d="M13.5489 8.68943C12.9623 8.68943 12.5078 9.14392 12.5078 9.70505C12.5078 10.2662 12.9623 10.7207 13.5489 10.7207C14.0846 10.7207 14.5391 10.2662 14.5391 9.70505C14.5391 9.14392 14.0846 8.68943 13.5489 8.68943ZM6.43948 8.68943C5.85296 8.68943 5.39846 9.14392 5.39846 9.70505C5.39846 10.2662 5.85296 10.7207 6.43948 10.7207C6.97522 10.7207 7.42971 10.2662 7.42971 9.70505C7.42971 9.14392 6.97522 8.68943 6.43948 8.68943Z" fill="white"/>
<path d="M21.6992 6.75974C20.4779 5.08396 18.7717 3.96424 16.9004 3.45896V3.4615C16.4662 2.97908 15.9762 2.53474 15.4277 2.13865C11.2713 -0.882837 5.43655 0.0388432 2.40237 4.19529C-0.0427455 7.57225 0.0613562 12.1146 2.55471 15.3418L2.57503 18.7086C2.57503 18.7898 2.58772 18.8711 2.61311 18.9473C2.74768 19.3764 3.20471 19.6125 3.63127 19.4779L6.84572 18.4648C7.69631 18.767 8.57482 18.9396 9.44826 18.9879L9.43556 18.998C11.6979 20.6459 14.6635 21.141 17.3828 20.2422L20.61 21.2933C20.6912 21.3187 20.775 21.334 20.8613 21.334C21.3107 21.334 21.6738 20.9709 21.6738 20.5215V17.1191C23.9107 14.0824 23.9691 9.88533 21.6992 6.75974ZM7.20119 16.6621L6.89651 16.5351L4.38284 17.3222L4.35745 14.6816L4.15432 14.4531C2.00628 11.8328 1.86409 8.05721 3.87502 5.28709C6.32268 1.93045 11.0149 1.18904 14.3613 3.61131C17.718 6.05135 18.4619 10.7359 16.0371 14.0722C14.0033 16.8627 10.3623 17.8935 7.20119 16.6621ZM20.0234 16.2305L19.8203 16.4844L19.8457 19.125L17.3574 18.2871L17.0527 18.414C15.6309 18.9422 14.1151 18.9853 12.711 18.5918L12.7059 18.5892C14.5822 18.0129 16.2834 16.8449 17.5098 15.164C19.4496 12.4904 19.7645 9.13123 18.6371 6.26717L18.6524 6.27732C19.2363 6.69627 19.7721 7.21932 20.2266 7.85154C22.0699 10.3804 21.9658 13.8234 20.0234 16.2305Z" fill="white"/>
<path d="M9.99417 8.68943C9.40764 8.68943 8.95315 9.14392 8.95315 9.70505C8.95315 10.2662 9.40764 10.7207 9.99417 10.7207C10.5299 10.7207 10.9844 10.2662 10.9844 9.70505C10.9844 9.14392 10.5299 8.68943 9.99417 8.68943Z" fill="white"/>
</svg>
