<svg width="24" height="24" viewBox="0 0 24 24" fill="none" xmlns="http://www.w3.org/2000/svg">
<path d="M20 23V20C20 18.4087 19.5786 16.8826 18.8284 15.7574C18.0783 14.6321 17.0609 14 16 14H8C6.93913 14 5.92172 14.6321 5.17157 15.7574C4.42143 16.8826 4 18.4087 4 20V23" stroke="#B3B3B3" stroke-width="2" stroke-linecap="round" stroke-linejoin="round"/>
<path d="M12 10.6667C14.2091 10.6667 16 8.8758 16 6.66666C16 4.45752 14.2091 2.66666 12 2.66666C9.79086 2.66666 8 4.45752 8 6.66666C8 8.8758 9.79086 10.6667 12 10.6667Z" stroke="#DA3A30" stroke-width="2" stroke-linecap="round" stroke-linejoin="round"/>
<path d="M11.4452 17.2491L11.4232 17.2739C11.1819 17.5454 11.1819 17.9546 11.4232 18.2261C11.5761 18.3981 11.6371 18.6331 11.5872 18.8577L11 21.5L11.6667 23H12.3333L13 21.5L12.4128 18.8577C12.3629 18.6331 12.4239 18.3981 12.5768 18.2261C12.8181 17.9546 12.8181 17.5454 12.5768 17.2739L12.5548 17.2491C12.4139 17.0907 12.212 17 12 17C11.788 17 11.5861 17.0907 11.4452 17.2491Z" fill="#DA3A30" stroke="#DA3A30"/>
</svg>
