<svg width="22" height="22" viewBox="0 0 22 22" fill="none" xmlns="http://www.w3.org/2000/svg">
<path d="M11 5.79235C8.11817 5.79235 5.79238 8.11813 5.79238 11C5.79238 13.8818 8.11817 16.2076 11 16.2076C13.8818 16.2076 16.2076 13.8818 16.2076 11C16.2076 8.11813 13.8818 5.79235 11 5.79235ZM11 14.3845C9.13633 14.3845 7.61543 12.8636 7.61543 11C7.61543 9.1363 9.13633 7.6154 11 7.6154C12.8637 7.6154 14.3846 9.1363 14.3846 11C14.3846 12.8636 12.8637 14.3845 11 14.3845ZM16.4209 4.3654C15.7481 4.3654 15.2047 4.90876 15.2047 5.58161C15.2047 6.25446 15.7481 6.79782 16.4209 6.79782C17.0938 6.79782 17.6371 6.257 17.6371 5.58161C17.6373 5.42184 17.606 5.2636 17.5449 5.11595C17.4839 4.9683 17.3943 4.83415 17.2813 4.72117C17.1684 4.6082 17.0342 4.51862 16.8866 4.45757C16.7389 4.39652 16.5807 4.3652 16.4209 4.3654ZM21.1512 11C21.1512 9.59841 21.1639 8.20954 21.0852 6.81052C21.0065 5.18552 20.6358 3.74333 19.4475 2.55505C18.2567 1.36423 16.817 0.996068 15.192 0.917357C13.7904 0.838646 12.4016 0.851341 11.0025 0.851341C9.60098 0.851341 8.21211 0.838646 6.81309 0.917357C5.18809 0.996068 3.7459 1.36677 2.55762 2.55505C1.3668 3.74587 0.998631 5.18552 0.91992 6.81052C0.841209 8.21208 0.853905 9.60095 0.853905 11C0.853905 12.399 0.841209 13.7904 0.91992 15.1894C0.998631 16.8144 1.36933 18.2566 2.55762 19.4449C3.74844 20.6357 5.18809 21.0039 6.81309 21.0826C8.21465 21.1613 9.60352 21.1486 11.0025 21.1486C12.4041 21.1486 13.793 21.1613 15.192 21.0826C16.817 21.0039 18.2592 20.6332 19.4475 19.4449C20.6383 18.2541 21.0065 16.8144 21.0852 15.1894C21.1664 13.7904 21.1512 12.4015 21.1512 11ZM18.9168 16.9871C18.7315 17.4492 18.508 17.7945 18.15 18.15C17.792 18.508 17.4492 18.7314 16.9871 18.9168C15.6516 19.4474 12.4803 19.3281 11 19.3281C9.51973 19.3281 6.3459 19.4474 5.01035 18.9193C4.54824 18.734 4.20293 18.5105 3.84746 18.1525C3.48945 17.7945 3.26602 17.4517 3.08066 16.9896C2.55254 15.6515 2.67187 12.4802 2.67187 11C2.67187 9.5197 2.55254 6.34587 3.08066 5.01032C3.26602 4.54821 3.48945 4.2029 3.84746 3.84743C4.20547 3.49197 4.54824 3.26599 5.01035 3.08064C6.3459 2.55251 9.51973 2.67185 11 2.67185C12.4803 2.67185 15.6541 2.55251 16.9897 3.08064C17.4518 3.26599 17.7971 3.48943 18.1525 3.84743C18.5106 4.20544 18.734 4.54821 18.9193 5.01032C19.4475 6.34587 19.3281 9.5197 19.3281 11C19.3281 12.4802 19.4475 15.6515 18.9168 16.9871Z" fill="white"/>
</svg>
