<svg width="24" height="26" viewBox="0 0 24 26" fill="none" xmlns="http://www.w3.org/2000/svg">
<path d="M14.8434 25V23.2313C14.8434 22.1268 15.7388 21.2313 16.8434 21.2313H18.1449C18.9067 21.1476 20.4305 20.5279 20.4305 18.7189C20.4305 18.4501 20.4305 18.1928 20.4305 17.9481C20.4305 16.2931 21.6826 15.1103 22.8654 13.9528C22.9133 13.9059 22.949 13.8612 22.9701 13.8196C23.1732 13.4177 22.2928 12.2284 21.8272 11.6841V11.6841C20.9094 10.1982 20.4388 8.48672 19.9005 6.82529C19.0255 4.12451 16.9874 1.08039 12.9387 1.00621C7.45325 0.905714 5.32001 2.05307 4.81209 2.38805C3.85972 3.01617 1.7646 5.12661 1.25668 8.04104V8.04104C0.696339 11.2563 2.23468 14.3123 3.66917 17.2439C3.94175 17.8009 4.16748 18.313 4.30422 18.7189C4.8121 20.2264 4.7698 23.5344 4.68516 25" stroke="#B3B3B3" stroke-width="2"/>
<path d="M5.6875 10.9796H6.13871C6.41983 10.9796 6.67263 11.1625 6.77703 11.4414L6.90272 11.7772C7.00046 12.0383 6.95013 12.3362 6.7731 12.5443L6.35763 13.0327C6.11077 13.3228 6.12071 13.7691 6.3802 14.0464L6.63566 14.3194C6.87983 14.5803 7.26726 14.6072 7.54097 14.3822L8.16153 13.8721C8.39501 13.6801 8.71697 13.6685 8.96206 13.8431L9.27719 14.0676C9.46845 14.2039 9.58333 14.4333 9.58333 14.6789V15.2653C9.58333 15.6711 9.89114 16 10.2708 16H10.7292C11.1089 16 11.4167 15.6711 11.4167 15.2653V14.7219C11.4167 14.453 11.5541 14.2056 11.775 14.0769L12.2255 13.8143C12.4932 13.6582 12.8251 13.7092 13.0408 13.9397L13.8229 14.7755C13.8886 14.8457 14.2326 14.4174 14.5347 14.0037C14.7271 13.7404 14.7161 13.3707 14.5182 13.1122L14.1049 12.5723C13.9333 12.3483 13.9009 12.0375 14.022 11.7785L14.2058 11.3857C14.3223 11.1368 14.5603 10.9796 14.8207 10.9796H15.3125C15.6922 10.9796 16 10.6507 16 10.2449V9.7551C16 9.34934 15.6922 9.02041 15.3125 9.02041H15.0499C14.7895 9.02041 14.5514 8.86318 14.435 8.61428L14.2637 8.24819C14.1363 7.97581 14.1793 7.64766 14.3718 7.42317L14.8211 6.89945C15.0879 6.58838 15.0552 6.10159 14.7496 5.83438L14.469 5.58901C14.2242 5.37494 13.8742 5.36704 13.6211 5.56988L13.0031 6.06524C12.8021 6.22635 12.5348 6.25744 12.3061 6.14633L11.8197 5.91005C11.5742 5.79083 11.4167 5.52931 11.4167 5.24121V4.73469C11.4167 4.32893 11.1089 4 10.7292 4H10.2708C9.89114 4 9.58333 4.32893 9.58333 4.73469V5.28199C9.58333 5.54881 9.44797 5.79465 9.22971 5.92423L8.9258 6.10466C8.69697 6.24051 8.41581 6.22571 8.20059 6.06648L7.56314 5.59488C7.27737 5.38345 6.88888 5.43322 6.65796 5.71083L6.49836 5.90271C6.29068 6.1524 6.26677 6.52039 6.44017 6.79835L6.82117 7.40907C6.96854 7.6453 6.97535 7.95114 6.83866 8.1946L6.57527 8.66371C6.45102 8.885 6.22724 9.02041 5.98574 9.02041H5.6875C5.3078 9.02041 5 9.34934 5 9.7551V10.2449C5 10.6507 5.3078 10.9796 5.6875 10.9796Z" fill="#DA3A30"/>
</svg>
