<svg width="30" height="30" viewBox="0 0 30 30" fill="none" xmlns="http://www.w3.org/2000/svg">
<path d="M11 7.5C11 6.83696 11.2634 6.20107 11.7322 5.73223C12.2011 5.26339 12.837 5 13.5 5C14.163 5 14.7989 5.26339 15.2678 5.73223C15.7366 6.20107 16 6.83696 16 7.5M11 7.5C11 6.83696 11.2634 6.20107 11.7322 5.73223C12.2011 5.26339 12.837 5 13.5 5C14.163 5 14.7989 5.26339 15.2678 5.73223C15.7366 6.20107 16 6.83696 16 7.5M21 4C20.2044 4 19.4413 4.31607 18.8787 4.87868C18.3161 5.44129 18 6.20435 18 7C18 7.79565 18.3161 8.55871 18.8787 9.12132C19.4413 9.68393 20.2044 10 21 10C21.7956 10 22.5587 9.68393 23.1213 9.12132C23.6839 8.55871 24 7.79565 24 7C24 6.20435 23.6839 5.44129 23.1213 4.87868C22.5587 4.31607 21.7956 4 21 4ZM13.5 5C12.837 5 12.2011 5.26339 11.7322 5.73223C11.2634 6.20107 11 6.83696 11 7.5C11 8.16304 11.2634 8.79893 11.7322 9.26777C12.2011 9.73661 12.837 10 13.5 10C14.163 10 14.7989 9.73661 15.2678 9.26777C15.7366 8.79893 16 8.16304 16 7.5C16 6.83696 15.7366 6.20107 15.2678 5.73223C14.7989 5.26339 14.163 5 13.5 5ZM7 6C6.46957 6 5.96086 6.21071 5.58579 6.58579C5.21071 6.96086 5 7.46957 5 8C5 8.53043 5.21071 9.03914 5.58579 9.41421C5.96086 9.78929 6.46957 10 7 10C7.53043 10 8.03914 9.78929 8.41421 9.41421C8.78929 9.03914 9 8.53043 9 8C9 7.46957 8.78929 6.96086 8.41421 6.58579C8.03914 6.21071 7.53043 6 7 6ZM7 12C5.343 12 4 13.343 4 15V21C4 21.552 4.448 22 5 22H9V23C9 23.552 9.448 24 10 24H16V25C16 25.552 16.448 26 17 26H25C25.552 26 26 25.552 26 25V18C26 15.239 23.761 13 21 13C19.6285 13 18.3878 13.5547 17.4844 14.4492C16.7367 13.0006 15.2423 12 13.5 12C11.9639 12 10.6108 12.7723 9.79883 13.9473C9.37148 12.8117 8.28509 12 7 12Z" stroke="#B3B3B3" stroke-width="2"/>
<circle cx="7" cy="8" r="2" stroke="#DA3A30" stroke-width="2"/>
<circle cx="13.5" cy="7.5" r="2.5" stroke="#DA3A30" stroke-width="2"/>
<circle cx="21" cy="7" r="3" stroke="#DA3A30" stroke-width="2"/>
</svg>
