<svg width="26" height="26" viewBox="0 0 26 26" fill="none" xmlns="http://www.w3.org/2000/svg">
<path d="M21.8004 3.45312C21.5187 3.46555 21.2562 3.5476 21.0251 3.64101C20.8087 3.72808 19.9817 4.08278 18.679 4.6414C17.3753 5.2005 15.649 5.94167 13.8074 6.73359C10.1244 8.31742 5.98366 10.1003 3.86277 11.0128C3.78301 11.0471 3.50474 11.136 3.20938 11.3665C2.91402 11.5971 2.60001 12.0749 2.60001 12.6073C2.60001 13.0366 2.8046 13.4631 3.06212 13.7177C3.31963 13.9723 3.59212 14.0981 3.82553 14.1934C4.6724 14.5389 7.29894 15.6137 7.79493 15.8167C7.96948 16.3514 8.92016 19.2595 9.14063 19.9723C9.28596 20.4426 9.42431 20.7372 9.60443 20.971C9.69449 21.0878 9.79918 21.1903 9.92605 21.2706C9.97676 21.3026 10.0324 21.3274 10.0885 21.3501L10.0919 21.3518C10.1049 21.357 10.116 21.3658 10.1292 21.3704C10.1539 21.3791 10.1705 21.3801 10.2037 21.3874C10.3357 21.43 10.4689 21.4568 10.5879 21.4568C11.095 21.4568 11.4055 21.1775 11.4055 21.1775L11.4241 21.1639L14.0326 18.9075L17.1962 21.9003C17.2408 21.9632 17.6562 22.5333 18.5724 22.5333C19.1164 22.5333 19.5479 22.2603 19.825 21.9697C20.1021 21.679 20.2747 21.3736 20.3481 20.9896V20.9879C20.4167 20.625 23.3323 5.65702 23.3323 5.65702L23.3272 5.67734C23.4126 5.28776 23.4349 4.92495 23.3408 4.56692C23.2466 4.20889 22.9984 3.8661 22.6908 3.68163C22.3831 3.49721 22.0821 3.44069 21.8004 3.45312ZM21.6379 5.26431C21.6337 5.28961 21.641 5.27689 21.6345 5.30663L21.6328 5.31679L21.6311 5.32694C21.6311 5.32694 18.7516 20.1035 18.6452 20.6663C18.653 20.6238 18.6174 20.7083 18.5809 20.7594C18.5293 20.7238 18.4234 20.6781 18.4234 20.6781L18.4065 20.6595L14.085 16.5716L11.0297 19.2122L11.9387 15.5729C11.9387 15.5729 17.6207 9.69115 17.963 9.34882C18.2386 9.07495 18.2965 8.97948 18.2965 8.88502C18.2965 8.75848 18.2305 8.66666 18.0832 8.66666C17.9506 8.66666 17.7723 8.79557 17.677 8.85624C16.4349 9.64798 10.9823 12.8259 8.53803 14.2475C8.1496 14.0886 5.45105 12.9839 4.53646 12.6107C4.54339 12.6076 4.54111 12.6087 4.54831 12.6056C6.66976 11.6929 10.8088 9.91004 14.4913 8.32642C16.3325 7.53462 18.0602 6.79289 19.3629 6.23424C20.6455 5.68419 21.5368 5.30563 21.6379 5.26431Z" fill="white"/>
</svg>
