<svg width="22" height="18" viewBox="0 0 22 18" fill="none" xmlns="http://www.w3.org/2000/svg">
<path d="M21.5625 2.45685C20.7855 2.79201 19.94 3.03322 19.0691 3.12716C19.9733 2.58999 20.6504 1.74134 20.9734 0.74044C20.125 1.24518 19.1955 1.59911 18.2262 1.78654C17.821 1.35344 17.3311 1.00841 16.7868 0.772959C16.2425 0.537506 15.6555 0.416669 15.0625 0.417979C12.6631 0.417979 10.7334 2.3629 10.7334 4.74962C10.7334 5.08478 10.774 5.41994 10.84 5.7424C7.24726 5.55451 4.04297 3.8381 1.9127 1.21017C1.52454 1.87316 1.32113 2.62805 1.32364 3.3963C1.32364 4.89943 2.08789 6.22482 3.25332 7.00431C2.56652 6.97727 1.8958 6.78849 1.29571 6.45334V6.50666C1.29571 8.61154 2.7836 10.3559 4.7666 10.7571C4.39427 10.8538 4.01125 10.9032 3.62657 10.9043C3.34473 10.9043 3.07813 10.8764 2.80899 10.8383C3.35742 12.5547 4.95449 13.8014 6.85625 13.842C5.36836 15.0074 3.50469 15.693 1.48106 15.693C1.11797 15.693 0.782818 15.6803 0.434967 15.6397C2.3545 16.8711 4.63203 17.5821 7.08476 17.5821C15.0473 17.5821 19.4043 10.9856 19.4043 5.25998C19.4043 5.07209 19.4043 4.88419 19.3916 4.6963C20.2346 4.07931 20.9734 3.31505 21.5625 2.45685Z" fill="white"/>
</svg>
