<svg width="22" height="22" viewBox="0 0 22 22" fill="none" xmlns="http://www.w3.org/2000/svg">
<path d="M11 22C17.0751 22 22 17.0751 22 11C22 4.92487 17.0751 0 11 0C4.92487 0 0 4.92487 0 11C0 17.0751 4.92487 22 11 22Z" fill="#DA3A30"/>
<path fill-rule="evenodd" clip-rule="evenodd" d="M16.8047 7.20277C17.0651 7.47314 17.0651 7.91148 16.8047 8.18184L9.47141 15.7972C9.34638 15.9271 9.17681 16 9 16C8.82319 16 8.65362 15.9271 8.5286 15.7972L5.19526 12.3357C4.93491 12.0653 4.93491 11.627 5.19526 11.3566C5.45561 11.0863 5.87772 11.0863 6.13807 11.3566L9 14.3286L15.8619 7.20277C16.1223 6.93241 16.5444 6.93241 16.8047 7.20277Z" fill="white"/>
</svg>
