<svg width="20" height="20" viewBox="0 0 20 20" fill="none" xmlns="http://www.w3.org/2000/svg">
<path d="M16.2701 17.1537L17.6826 18.5662C17.7997 18.6836 17.9588 18.7496 18.1246 18.7497C18.2067 18.7498 18.2881 18.7337 18.364 18.7023C18.4399 18.6709 18.5088 18.6249 18.5669 18.5669C18.625 18.5088 18.6712 18.4399 18.7026 18.3641C18.7341 18.2882 18.7503 18.2069 18.7504 18.1248C18.7505 18.0427 18.7343 17.9614 18.703 17.8855C18.6716 17.8096 18.6256 17.7406 18.5676 17.6825L2.31756 1.4325C2.25945 1.37439 2.19046 1.32829 2.11454 1.29684C2.03861 1.26539 1.95724 1.24921 1.87506 1.24921C1.79288 1.24921 1.7115 1.26539 1.63558 1.29684C1.55965 1.32829 1.49067 1.37439 1.43256 1.4325C1.37445 1.49061 1.32835 1.55959 1.2969 1.63552C1.26545 1.71144 1.24927 1.79282 1.24927 1.875C1.24927 1.95718 1.26545 2.03855 1.2969 2.11448C1.32835 2.1904 1.37445 2.25939 1.43256 2.3175L2.84506 3.73C2.61813 4.11468 2.49896 4.55337 2.50006 5V6.875C2.50006 7.04076 2.56591 7.19973 2.68312 7.31694C2.80033 7.43415 2.9593 7.5 3.12506 7.5C3.29082 7.5 3.44979 7.43415 3.567 7.31694C3.68421 7.19973 3.75006 7.04076 3.75006 6.875V5C3.75006 4.8875 3.76506 4.78 3.79256 4.67625L5.88006 6.76375C5.59756 6.95125 5.34631 7.15 5.12631 7.35C4.73546 7.70373 4.39369 8.10815 4.11006 8.5525C3.99455 8.73519 3.8918 8.92564 3.80256 9.1225L3.79756 9.135L3.79506 9.14125V9.1425C3.73739 9.2955 3.74197 9.46501 3.80783 9.61467C3.87368 9.76433 3.99557 9.88223 4.14734 9.94306C4.29911 10.0039 4.46868 10.0028 4.61968 9.94011C4.77068 9.87738 4.89108 9.75797 4.95506 9.6075V9.60875L4.96131 9.595L4.99631 9.52C5.03006 9.45125 5.08631 9.34875 5.16631 9.22C5.38978 8.87083 5.65881 8.55303 5.96631 8.275C6.19256 8.07 6.46381 7.8625 6.78756 7.67125L7.98131 8.865C7.65081 9.14403 7.38184 9.48864 7.19141 9.87701C7.00099 10.2654 6.89326 10.689 6.87505 11.1212C6.85684 11.5534 6.92854 11.9846 7.08562 12.3876C7.24269 12.7906 7.48172 13.1566 7.78757 13.4625C8.09343 13.7683 8.45944 14.0074 8.86245 14.1644C9.26546 14.3215 9.69669 14.3932 10.1288 14.375C10.561 14.3568 10.9847 14.2491 11.373 14.0586C11.7614 13.8682 12.106 13.5992 12.3851 13.2687L15.3238 16.2075C15.2182 16.2358 15.1094 16.25 15.0001 16.25H13.1251C12.9593 16.25 12.8003 16.3158 12.6831 16.4331C12.5659 16.5503 12.5001 16.7092 12.5001 16.875C12.5001 17.0408 12.5659 17.1997 12.6831 17.3169C12.8003 17.4341 12.9593 17.5 13.1251 17.5H15.0001C15.4626 17.5 15.8976 17.3737 16.2701 17.1537Z" fill="white"/>
<path d="M8.41626 5.765L9.54001 6.8875C9.68876 6.88 9.84126 6.875 10 6.875C12.0213 6.875 13.28 7.59125 14.0325 8.275C14.4138 8.62125 14.6725 8.96625 14.8325 9.22125C14.9089 9.34144 14.9778 9.46627 15.0388 9.595C15.0388 9.595 15.3438 10.16 15.8575 9.955C16.0113 9.89331 16.1343 9.77306 16.1995 9.6207C16.2646 9.46833 16.2666 9.29633 16.205 9.1425C16.0713 8.86375 16.205 9.1425 16.205 9.1425V9.14L16.2025 9.135L16.1963 9.1225C16.1734 9.06779 16.1484 9.014 16.1213 8.96125C16.0506 8.82123 15.973 8.68481 15.8888 8.5525C15.6055 8.10826 15.2641 7.70385 14.8738 7.35C13.9063 6.47125 12.3525 5.625 9.99876 5.625C9.42501 5.625 8.89876 5.675 8.41626 5.765Z" fill="white"/>
<path d="M16.25 13.5987L17.5 14.8487V13.125C17.5 12.9592 17.4342 12.8003 17.3169 12.6831C17.1997 12.5658 17.0408 12.5 16.875 12.5C16.7092 12.5 16.5503 12.5658 16.4331 12.6831C16.3158 12.8003 16.25 12.9592 16.25 13.125V13.5987Z" fill="white"/>
<path d="M5.15137 2.5L6.40137 3.75H6.87512C7.04088 3.75 7.19985 3.68415 7.31706 3.56694C7.43427 3.44973 7.50012 3.29076 7.50012 3.125C7.50012 2.95924 7.43427 2.80027 7.31706 2.68306C7.19985 2.56585 7.04088 2.5 6.87512 2.5H5.15137Z" fill="white"/>
<path d="M2.5 15C2.5 15.663 2.76339 16.2989 3.23223 16.7678C3.70107 17.2366 4.33696 17.5 5 17.5H6.875C7.04076 17.5 7.19973 17.4342 7.31694 17.3169C7.43415 17.1997 7.5 17.0408 7.5 16.875C7.5 16.7092 7.43415 16.5503 7.31694 16.4331C7.19973 16.3158 7.04076 16.25 6.875 16.25H5C4.66848 16.25 4.35054 16.1183 4.11612 15.8839C3.8817 15.6495 3.75 15.3315 3.75 15V13.125C3.75 12.9592 3.68415 12.8003 3.56694 12.6831C3.44973 12.5658 3.29076 12.5 3.125 12.5C2.95924 12.5 2.80027 12.5658 2.68306 12.6831C2.56585 12.8003 2.5 12.9592 2.5 13.125V15Z" fill="white"/>
<path d="M15 2.5C15.663 2.5 16.2989 2.76339 16.7678 3.23223C17.2366 3.70107 17.5 4.33696 17.5 5V6.875C17.5 7.04076 17.4342 7.19973 17.3169 7.31694C17.1997 7.43415 17.0408 7.5 16.875 7.5C16.7092 7.5 16.5503 7.43415 16.4331 7.31694C16.3158 7.19973 16.25 7.04076 16.25 6.875V5C16.25 4.66848 16.1183 4.35054 15.8839 4.11612C15.6495 3.8817 15.3315 3.75 15 3.75H13.125C12.9592 3.75 12.8003 3.68415 12.6831 3.56694C12.5658 3.44973 12.5 3.29076 12.5 3.125C12.5 2.95924 12.5658 2.80027 12.6831 2.68306C12.8003 2.56585 12.9592 2.5 13.125 2.5H15Z" fill="white"/>
</svg>
