<svg width="432" height="259" viewBox="0 0 432 259" fill="none" xmlns="http://www.w3.org/2000/svg">
<g clip-path="url(#clip0_238_83)">
<path d="M72.4927 246.54C72.1465 246.555 71.8039 246.465 71.5111 246.28C71.2184 246.094 70.9897 245.824 70.856 245.504C70.7223 245.185 70.6901 244.832 70.7638 244.494C70.8375 244.156 71.0135 243.849 71.2679 243.614L71.3837 243.154C71.3685 243.117 71.3531 243.08 71.3377 243.044C70.989 242.221 70.4047 241.519 69.6582 241.027C68.9117 240.535 68.0362 240.274 67.1418 240.278C66.2474 240.281 65.3739 240.548 64.6311 241.046C63.8882 241.543 63.3092 242.249 62.9666 243.075C61.5974 246.368 59.8543 249.668 59.4251 253.151C59.2361 254.69 59.3158 256.251 59.6608 257.763C56.445 250.756 54.7752 243.14 54.7644 235.432C54.7638 233.498 54.8714 231.565 55.0867 229.643C55.2647 228.067 55.5116 226.502 55.8274 224.949C57.551 216.52 61.2516 208.62 66.6252 201.897C69.2261 200.479 71.3294 198.3 72.6518 195.651C73.1309 194.699 73.4695 193.683 73.6571 192.634C73.3637 192.672 72.5508 188.209 72.7721 187.935C72.3632 187.315 71.6314 187.007 71.1849 186.403C68.964 183.395 65.9043 183.92 64.3069 188.007C60.8947 189.728 60.8617 192.58 62.9554 195.324C64.2875 197.07 64.4705 199.432 65.6393 201.301C65.519 201.455 65.3939 201.604 65.2737 201.758C63.0756 204.581 61.1599 207.613 59.5539 210.809C59.9444 207.228 59.4783 203.605 58.1938 200.239C56.892 197.102 54.4519 194.46 52.3031 191.748C49.7221 188.491 44.4295 189.912 43.9747 194.042C43.9703 194.082 43.966 194.122 43.9618 194.162C44.281 194.342 44.5934 194.532 44.8991 194.734C45.2831 194.991 45.5807 195.357 45.7528 195.785C45.9249 196.213 45.9636 196.683 45.8637 197.134C45.7638 197.584 45.53 197.994 45.193 198.309C44.8559 198.625 44.4314 198.831 43.9749 198.901L43.9282 198.909C44.0419 200.058 44.2429 201.196 44.5294 202.315C41.7728 212.964 47.7241 216.842 56.2218 217.017C56.4094 217.113 56.5922 217.209 56.7798 217.3C55.1662 221.868 54.1541 226.625 53.7689 231.454C53.5508 234.302 53.5637 237.164 53.8074 240.011L53.7929 239.91C53.1772 236.744 51.4869 233.888 49.0072 231.824C45.3244 228.802 40.1212 227.689 36.1481 225.26C35.7258 224.989 35.2348 224.845 34.7331 224.843C34.2313 224.842 33.7396 224.984 33.316 225.253C32.8925 225.522 32.5547 225.906 32.3425 226.36C32.1303 226.814 32.0526 227.32 32.1185 227.817C32.1238 227.852 32.1292 227.887 32.1348 227.923C32.727 228.164 33.3037 228.441 33.8614 228.754C34.1806 228.934 34.493 229.125 34.7987 229.326C35.1827 229.583 35.4803 229.949 35.6524 230.377C35.8245 230.805 35.8631 231.275 35.7632 231.726C35.6633 232.176 35.4296 232.586 35.0925 232.901C34.7555 233.217 34.331 233.423 33.8745 233.493L33.8277 233.501C33.7941 233.505 33.7652 233.51 33.7316 233.515C34.7436 235.929 36.1639 238.15 37.9304 240.083C39.6541 249.379 47.0571 250.261 54.9761 247.554H54.9809C55.8498 251.325 57.1087 254.996 58.7374 258.508H72.1564C72.2046 258.359 72.2479 258.205 72.2912 258.056C71.0491 258.134 69.8021 258.06 68.578 257.835C69.5736 256.615 70.5693 255.385 71.5649 254.164C71.5871 254.142 71.608 254.118 71.6274 254.092C72.1324 253.468 72.6423 252.848 73.1473 252.223L73.1475 252.223C73.1745 250.308 72.9545 248.398 72.4932 246.54L72.4927 246.54Z" fill="#F2F2F2"/>
<path d="M352.772 246.54C353.118 246.555 353.461 246.465 353.753 246.28C354.046 246.094 354.275 245.824 354.409 245.504C354.542 245.185 354.574 244.832 354.501 244.494C354.427 244.156 354.251 243.849 353.997 243.614L353.881 243.154C353.896 243.117 353.911 243.08 353.927 243.044C354.275 242.221 354.86 241.519 355.606 241.027C356.353 240.535 357.228 240.274 358.123 240.278C359.017 240.281 359.891 240.548 360.633 241.046C361.376 241.543 361.955 242.249 362.298 243.075C363.667 246.368 365.41 249.668 365.839 253.151C366.028 254.69 365.949 256.251 365.604 257.763C368.819 250.756 370.489 243.14 370.5 235.432C370.501 233.498 370.393 231.565 370.178 229.643C370 228.067 369.753 226.502 369.437 224.949C367.714 216.52 364.013 208.62 358.639 201.897C356.038 200.479 353.935 198.3 352.613 195.651C352.134 194.699 351.795 193.683 351.607 192.634C351.901 192.672 352.714 188.209 352.492 187.935C352.901 187.315 353.633 187.007 354.08 186.403C356.3 183.395 359.36 183.92 360.958 188.007C364.37 189.728 364.403 192.58 362.309 195.324C360.977 197.07 360.794 199.432 359.625 201.301C359.745 201.455 359.871 201.604 359.991 201.758C362.189 204.581 364.105 207.613 365.711 210.809C365.32 207.228 365.786 203.605 367.071 200.239C368.373 197.102 370.813 194.46 372.961 191.748C375.542 188.491 380.835 189.912 381.29 194.042C381.294 194.082 381.298 194.122 381.303 194.162C380.983 194.342 380.671 194.532 380.365 194.734C379.981 194.991 379.684 195.357 379.512 195.785C379.34 196.213 379.301 196.683 379.401 197.134C379.501 197.584 379.734 197.994 380.072 198.309C380.409 198.625 380.833 198.831 381.29 198.901L381.336 198.909C381.223 200.058 381.022 201.196 380.735 202.315C383.492 212.964 377.54 216.842 369.043 217.017C368.855 217.113 368.672 217.209 368.485 217.3C370.098 221.868 371.11 226.625 371.496 231.454C371.714 234.302 371.701 237.164 371.457 240.011L371.472 239.91C372.087 236.744 373.778 233.888 376.257 231.824C379.94 228.802 385.143 227.689 389.116 225.26C389.539 224.989 390.03 224.845 390.531 224.843C391.033 224.842 391.525 224.984 391.948 225.253C392.372 225.522 392.71 225.906 392.922 226.36C393.134 226.814 393.212 227.32 393.146 227.817C393.141 227.852 393.135 227.887 393.13 227.923C392.537 228.164 391.961 228.441 391.403 228.754C391.084 228.934 390.771 229.125 390.466 229.326C390.082 229.583 389.784 229.949 389.612 230.377C389.44 230.805 389.401 231.275 389.501 231.726C389.601 232.176 389.835 232.586 390.172 232.901C390.509 233.217 390.934 233.423 391.39 233.493L391.437 233.501C391.47 233.505 391.499 233.51 391.533 233.515C390.521 235.929 389.101 238.15 387.334 240.083C385.61 249.379 378.207 250.261 370.288 247.554H370.284C369.415 251.325 368.156 254.996 366.527 258.508H353.108C353.06 258.359 353.017 258.205 352.973 258.056C354.215 258.134 355.462 258.06 356.687 257.835C355.691 256.615 354.695 255.385 353.7 254.164C353.677 254.142 353.657 254.118 353.637 254.092C353.132 253.468 352.622 252.848 352.117 252.223L352.117 252.223C352.09 250.308 352.31 248.398 352.771 246.54L352.772 246.54Z" fill="#F2F2F2"/>
<path d="M87.9258 258.207H109.58C113.284 245.751 109.6 216.312 114.481 204.28C123.847 181.209 135.812 156.867 158.143 145.602C167.678 140.792 178.074 138.913 188.692 139.016C203.359 139.155 218.438 143.087 232.243 148.299C237.89 150.427 243.486 152.766 249.06 155.156C270.059 164.17 290.83 173.987 313.411 176.641C341.987 179.996 375.584 167.225 383.388 139.717C389.345 118.657 378.617 96.7927 367.367 77.9838C356.116 59.175 343.54 39.0503 345.595 17.2736C345.602 17.2005 345.609 17.12 345.624 17.047C346.397 9.22517 351.073 3.60386 357.603 0H329.168C328.793 20.3147 340.558 38.2462 351.146 55.9512C362.397 74.7527 373.124 96.6245 367.168 117.685C359.363 145.185 294.737 112.949 266.162 109.586C258.092 108.643 270.911 111.999 263.217 109.586C251.149 105.807 249.811 140.47 238.067 135.383C230.756 132.21 223.437 129.059 216.023 126.26C212.952 125.097 209.816 124.008 206.642 122.999C206.635 122.999 206.635 122.999 206.628 122.992C185.32 116.252 162.016 113.628 142.328 123.372C142.195 123.438 142.055 123.504 141.923 123.569C119.591 134.827 107.627 159.17 98.2609 182.24C90.5225 201.312 91.7397 238.09 87.9258 258.207Z" fill="#F2F2F2"/>
<path d="M208.401 257.57C263.329 257.57 307.857 213.091 307.857 158.223C307.857 103.355 263.329 58.8763 208.401 58.8763C153.473 58.8763 108.945 103.355 108.945 158.223C108.945 213.091 153.473 257.57 208.401 257.57Z" fill="white"/>
<path d="M208.118 258.207C109.716 260.466 107.559 213.767 107.559 158.223C107.559 102.679 152.797 57.4907 208.402 57.4907C264.007 57.4907 309.245 102.679 309.245 158.223C309.245 213.767 263.723 258.207 208.118 258.207ZM208.402 60.2625C154.326 60.2625 111.244 104.215 110.333 158.223C109.486 208.457 162.91 271.141 208.402 256.184C232.798 229.346 301.771 200.439 306.47 158.223C312.446 104.538 262.477 60.2625 208.402 60.2625V60.2625Z" fill="#3F3D56"/>
<path d="M194.835 209.928C193.117 209.928 191.423 209.529 189.887 208.761C188.351 207.994 187.015 206.88 185.985 205.507L158.852 169.369C157.98 168.208 157.345 166.887 156.984 165.48C156.623 164.074 156.542 162.611 156.748 161.174C156.953 159.737 157.439 158.354 158.18 157.105C158.92 155.856 159.9 154.765 161.062 153.894C162.225 153.023 163.548 152.389 164.956 152.029C166.363 151.669 167.828 151.59 169.267 151.795C170.706 152.001 172.089 152.488 173.34 153.228C174.59 153.968 175.682 154.947 176.553 156.108L194.304 179.749L239.897 111.437C241.525 109 244.055 107.309 246.932 106.735C249.808 106.161 252.795 106.751 255.235 108.377C257.676 110.002 259.371 112.529 259.947 115.402C260.523 118.275 259.933 121.258 258.307 123.697L204.041 205.007C203.059 206.477 201.739 207.691 200.191 208.547C198.642 209.403 196.911 209.875 195.143 209.925C195.04 209.926 194.937 209.928 194.835 209.928Z" fill="#F2F2F2"/>
<path d="M3.17062e-06 258.284C-0.000277383 258.379 0.0180634 258.472 0.053965 258.559C0.0898666 258.646 0.142624 258.725 0.209201 258.791C0.275777 258.858 0.354854 258.91 0.441893 258.946C0.528933 258.982 0.622218 259 0.716369 259H431.284C431.474 259 431.656 258.925 431.79 258.79C431.925 258.656 432 258.474 432 258.284C432 258.095 431.925 257.913 431.79 257.779C431.656 257.644 431.474 257.569 431.284 257.569H0.716369C0.622219 257.569 0.52894 257.587 0.441903 257.623C0.354865 257.659 0.275786 257.711 0.20921 257.778C0.142634 257.844 0.089877 257.923 0.0539742 258.01C0.0180715 258.097 -0.000274187 258.19 3.17062e-06 258.284Z" fill="#CCCCCC"/>
<path d="M271.912 251.27H266.089L263.318 228.832L271.914 228.832L271.912 251.27Z" fill="#FFB6B6"/>
<path d="M272.117 257.339L254.209 257.338V257.112C254.209 255.265 254.944 253.494 256.251 252.189C257.558 250.883 259.331 250.149 261.179 250.149H261.18L264.451 247.67L270.554 250.15L272.118 250.15L272.117 257.339Z" fill="#2F2E41"/>
<path d="M246.594 223.462L241.215 225.69L230.051 206.024L237.99 202.735L246.594 223.462Z" fill="#FFB6B6"/>
<path d="M249.11 228.989L232.568 235.841L232.481 235.632C231.773 233.926 231.772 232.009 232.479 230.303C233.185 228.597 234.542 227.241 236.249 226.533L236.25 226.533L238.321 222.991L244.909 222.946L246.353 222.348L249.11 228.989Z" fill="#2F2E41"/>
<path d="M278.571 123.63L237.242 127.943L231.714 146.543L212.568 177.277C212.568 177.277 225.928 199.737 224.673 199.493C223.419 199.248 225.926 205.371 227.682 205.015C229.439 204.66 231.265 208.652 230.051 209.361C228.837 210.071 233.707 216.073 233.707 216.073L241.152 209.398C242.736 197.467 240.822 186.848 234.006 178.07L255.335 155.069L259.379 153.393L262.59 238.743L274.464 238.938C277.741 222.102 279.387 206.948 276.826 196.138C276.826 196.138 277.194 163.663 278.598 164.018C280.002 164.373 278.812 160.143 278.812 160.143C278.812 160.143 277.582 156.54 279.093 155.045C280.604 153.55 279.661 144.759 279.661 144.759C282.157 136.439 281.406 129.57 278.571 123.63Z" fill="#2F2E41"/>
<path d="M246.793 54.9927L258.218 52.0353L263.551 44.6876L276.217 46.2429L278.913 56.2653L287.93 61.4935C287.93 61.4935 282.946 114.149 284.132 117.04C285.317 119.932 289.568 119.693 285.938 123.42C282.308 127.147 281.827 125.646 282.669 129.704C283.512 133.761 289.652 138.056 282.669 138.013C275.686 137.97 233.55 137.369 234.754 132.559C235.958 127.748 235.939 128.97 237.754 125.954C239.569 122.938 240.791 124.623 240.18 120.173C239.569 115.723 240.171 112.716 240.171 110.311C240.171 107.906 242.188 86.05 242.188 86.05L246.793 54.9927Z" fill="#E6E6E6"/>
<path d="M269.854 43.3294C277.266 43.3294 283.276 37.3268 283.276 29.9221C283.276 22.5175 277.266 16.5149 269.854 16.5149C262.441 16.5149 256.432 22.5175 256.432 29.9221C256.432 37.3268 262.441 43.3294 269.854 43.3294Z" fill="#FFB6B6"/>
<path d="M255.789 21.8081C256.967 22.7594 256.698 27.3861 258.011 26.632C259.324 25.8779 259.597 24.5274 261.11 24.5132C262.342 24.5812 263.505 25.1069 264.37 25.9871C264.531 26.1324 264.684 26.2848 264.833 26.4354C264.969 26.3877 265.103 26.3446 265.245 26.3092C266.305 26.0505 267.425 26.208 268.372 26.7491C267.497 26.8116 266.664 27.1472 265.99 27.7087C266.279 28.0318 266.572 28.3567 266.88 28.657C269.45 31.1734 274.721 28.4937 278.265 27.889C275.313 31.1083 275.895 32.9054 276.629 37.2084L276.632 37.4434C276.783 36.4511 279.965 36.5006 279.44 37.8173C278.781 39.118 277.957 40.3283 276.988 41.4181C281.323 38.4182 284.823 34.283 285.596 29.2879C285.755 28.2376 286.065 27.166 285.765 26.142C285.638 25.6243 285.342 25.1632 284.925 24.8309C284.508 24.4985 283.992 24.3136 283.458 24.3051C283.941 22.7728 284 21.1384 283.627 19.5758C283.254 18.0131 282.465 16.5805 281.342 15.4303C280.219 14.2801 278.806 13.4553 277.251 13.0435C275.697 12.6318 274.06 12.6485 272.514 13.0919C271.104 13.5924 269.729 14.1854 268.397 14.8669C267.053 15.551 265.531 15.8084 264.037 15.6046C263.105 15.4125 262.162 14.9309 261.25 15.2035C260.192 15.5204 259.737 16.6361 259.313 17.7131C260.109 18.0034 260.8 18.5241 261.298 19.2086C260.476 18.9054 259.578 18.8689 258.734 19.1045C258.718 19.1073 258.703 19.1114 258.688 19.1169C257.731 20.8309 257.675 21.2512 255.789 21.8081Z" fill="#2F2E41"/>
<path d="M260.216 48.4438C253.341 47.8909 247.064 53.1428 244.202 59.411C241.34 65.6792 241.153 72.79 241.014 79.678L240.582 101.089C240.518 104.257 240.454 107.426 240.296 110.591C240.215 113.671 239.827 116.735 239.138 119.738C237.737 125.249 234.653 130.16 231.615 134.968C239.394 137.316 247.304 139.204 255.306 140.619C259.302 127.709 263.344 114.427 262.361 100.95C261.841 93.8177 259.921 86.8546 259.191 79.7411C258.157 69.6663 259.528 59.5174 260.895 49.4824" fill="#3F3D56"/>
<path d="M276.902 49.648C283.712 50.7417 288.561 57.3323 289.851 64.1001C291.141 70.8679 289.632 77.8198 288.13 84.5437C286.573 91.5106 285.016 98.4776 283.459 105.445C282.768 108.537 282.077 111.631 281.478 114.743C280.896 117.766 283.333 121.643 283.361 124.722C283.412 130.407 282.307 135.09 284.115 140.481C276.001 140.917 267.868 140.874 259.759 140.352C258.946 126.862 258.178 113.002 262.336 100.143C264.536 93.3384 268.057 87.0299 270.457 80.293C273.857 70.7517 274.938 60.568 275.995 50.4957" fill="#3F3D56"/>
<path d="M281.443 146.847C280.938 145.967 280.796 144.924 281.048 143.941C281.3 142.957 281.926 142.111 282.793 141.582C282.971 141.478 283.158 141.388 283.351 141.314L282.482 111.781L291.889 109.389L288.302 143.796C288.547 144.619 288.513 145.499 288.205 146.3C287.897 147.101 287.332 147.778 286.598 148.224C286.179 148.474 285.713 148.64 285.23 148.71C284.746 148.781 284.253 148.755 283.779 148.636C283.305 148.516 282.859 148.304 282.467 148.013C282.075 147.721 281.745 147.355 281.494 146.935C281.477 146.906 281.46 146.877 281.443 146.847Z" fill="#FFB6B6"/>
<path d="M280.755 61.4464C280.755 61.4464 287.321 55.9 292.846 66.9899C298.371 78.0797 295.283 103.414 294.505 104.767C293.728 106.119 293.253 104.235 293.679 107.839C294.025 110.771 291.966 110.404 292.705 111.029C294.653 112.679 289.197 112.867 291.999 114.32C294.801 115.773 282.261 116.046 282.261 116.046C282.261 116.046 280.744 114.963 281.797 110.883C282.389 108.591 283.87 107.753 282.29 106.692C280.71 105.632 283.922 102.353 283.925 101.634C283.927 100.915 278.916 85.1809 278.916 85.1809L280.755 61.4464Z" fill="#3F3D56"/>
<path d="M226.425 198.063C224.707 198.063 223.013 197.664 221.477 196.897C219.941 196.129 218.605 195.015 217.575 193.642L190.442 157.504C189.57 156.343 188.935 155.022 188.574 153.616C188.212 152.21 188.132 150.746 188.337 149.309C188.543 147.872 189.029 146.489 189.77 145.24C190.51 143.991 191.489 142.9 192.652 142.029C193.815 141.158 195.138 140.524 196.545 140.164C197.953 139.804 199.418 139.725 200.857 139.93C202.295 140.136 203.679 140.623 204.929 141.363C206.18 142.103 207.272 143.082 208.143 144.244L225.894 167.884L271.486 99.5721C272.292 98.3646 273.328 97.3275 274.536 96.5199C275.743 95.7124 277.097 95.1503 278.522 94.8657C279.947 94.5811 281.413 94.5795 282.839 94.8612C284.264 95.1428 285.62 95.7021 286.829 96.5071C288.037 97.3121 289.076 98.3471 289.884 99.5529C290.693 100.759 291.255 102.112 291.54 103.535C291.825 104.958 291.827 106.423 291.545 107.847C291.263 109.271 290.703 110.625 289.897 111.832L235.631 193.142C234.649 194.613 233.329 195.827 231.781 196.682C230.232 197.538 228.501 198.01 226.733 198.06C226.63 198.062 226.527 198.063 226.425 198.063Z" fill="#DA3A30"/>
<path d="M247.107 141.717C247.661 140.866 247.86 139.833 247.662 138.837C247.465 137.841 246.887 136.962 246.05 136.386C245.878 136.271 245.697 136.171 245.509 136.087L248.01 106.647L238.75 103.74L240.428 138.292C240.137 139.1 240.122 139.981 240.386 140.798C240.649 141.615 241.176 142.321 241.883 142.808C242.289 143.081 242.744 143.271 243.223 143.368C243.702 143.466 244.196 143.468 244.676 143.374C245.155 143.281 245.612 143.094 246.02 142.824C246.427 142.555 246.778 142.207 247.051 141.802C247.07 141.774 247.089 141.746 247.107 141.717Z" fill="#FFB6B6"/>
<path d="M252.526 56.5456C252.526 56.5456 246.277 50.6452 240.147 61.4131C234.017 72.1809 235.698 97.6474 236.4 99.0404C237.102 100.433 237.68 98.5789 237.055 102.154C236.547 105.062 238.624 104.809 237.851 105.393C235.815 106.933 241.252 107.421 238.374 108.718C235.496 110.014 248.002 110.978 248.002 110.978C248.002 110.978 249.576 109.982 248.75 105.849C248.286 103.528 246.853 102.609 248.49 101.638C250.126 100.666 247.1 97.2152 247.138 96.4968C247.175 95.7784 253.049 80.3453 253.049 80.3453L252.526 56.5456Z" fill="#3F3D56"/>
</g>
<defs>
<clipPath id="clip0_238_83">
<rect width="432" height="259" fill="white"/>
</clipPath>
</defs>
</svg>
