<svg width="25" height="26" viewBox="0 0 25 26" fill="none" xmlns="http://www.w3.org/2000/svg">
<path d="M24.9939 13.2769C24.9939 12.2526 24.9088 11.5052 24.7248 10.7301H12.7548V15.353H19.7809C19.6393 16.5019 18.8744 18.232 17.1745 19.3946L17.1506 19.5494L20.9353 22.4142L21.1975 22.4397C23.6056 20.2666 24.9939 17.0693 24.9939 13.2769Z" fill="#4285F4"/>
<path d="M12.7548 25.4571C16.197 25.4571 19.0868 24.3498 21.1975 22.4397L17.1745 19.3946C16.0979 20.1282 14.653 20.6403 12.7548 20.6403C9.38345 20.6403 6.52203 18.4673 5.50201 15.4638L5.3525 15.4762L1.41714 18.452L1.36568 18.5918C3.46216 22.6611 7.76851 25.4571 12.7548 25.4571Z" fill="#34A853"/>
<path d="M5.50201 15.4638C5.23287 14.6887 5.07715 13.8581 5.07715 13C5.07715 12.1418 5.23291 11.3114 5.48789 10.5363L5.48076 10.3712L1.49609 7.34754L1.36572 7.40813C0.50166 9.09677 0.00585938 10.9931 0.00585938 13C0.00585938 15.007 0.501617 16.9032 1.36568 18.5918L5.50201 15.4638Z" fill="#FBBC05"/>
<path d="M12.7548 5.35967C15.1488 5.35967 16.7636 6.37007 17.6844 7.21444L21.2825 3.78181C19.0727 1.77484 16.197 0.542969 12.7548 0.542969C7.76851 0.542969 3.46221 3.33885 1.36572 7.40813L5.48789 10.5363C6.52207 7.53275 9.38345 5.35967 12.7548 5.35967Z" fill="#EB4335"/>
</svg>
